<svg id="visual" viewBox="0 0 960 540" xmlns="http://www.w3.org/2000/svg" xmlns:xlink="http://www.w3.org/1999/xlink" version="1.1"><rect x="0" y="0" width="960" height="540" fill="#001220"></rect><path d="M0 262L22.8 276.5C45.7 291 91.3 320 137 323C182.7 326 228.3 303 274 289.7C319.7 276.3 365.3 272.7 411.2 280.2C457 287.7 503 306.3 548.8 317.2C594.7 328 640.3 331 686 332.8C731.7 334.7 777.3 335.3 823 338.7C868.7 342 914.3 348 937.2 351L960 354L960 541L937.2 541C914.3 541 868.7 541 823 541C777.3 541 731.7 541 686 541C640.3 541 594.7 541 548.8 541C503 541 457 541 411.2 541C365.3 541 319.7 541 274 541C228.3 541 182.7 541 137 541C91.3 541 45.7 541 22.8 541L0 541Z" fill="#faab69"></path><path d="M0 343L22.8 335.7C45.7 328.3 91.3 313.7 137 318.7C182.7 323.7 228.3 348.3 274 355.5C319.7 362.7 365.3 352.3 411.2 348.3C457 344.3 503 346.7 548.8 345.7C594.7 344.7 640.3 340.3 686 336.8C731.7 333.3 777.3 330.7 823 324.2C868.7 317.7 914.3 307.3 937.2 302.2L960 297L960 541L937.2 541C914.3 541 868.7 541 823 541C777.3 541 731.7 541 686 541C640.3 541 594.7 541 548.8 541C503 541 457 541 411.2 541C365.3 541 319.7 541 274 541C228.3 541 182.7 541 137 541C91.3 541 45.7 541 22.8 541L0 541Z" fill="#f1805e"></path><path d="M0 449L22.8 449.5C45.7 450 91.3 451 137 438.5C182.7 426 228.3 400 274 395.8C319.7 391.7 365.3 409.3 411.2 421C457 432.7 503 438.3 548.8 430.8C594.7 423.3 640.3 402.7 686 390.3C731.7 378 777.3 374 823 374.3C868.7 374.7 914.3 379.3 937.2 381.7L960 384L960 541L937.2 541C914.3 541 868.7 541 823 541C777.3 541 731.7 541 686 541C640.3 541 594.7 541 548.8 541C503 541 457 541 411.2 541C365.3 541 319.7 541 274 541C228.3 541 182.7 541 137 541C91.3 541 45.7 541 22.8 541L0 541Z" fill="#e1535f"></path><path d="M0 471L22.8 465.8C45.7 460.7 91.3 450.3 137 447C182.7 443.7 228.3 447.3 274 448.3C319.7 449.3 365.3 447.7 411.2 444.8C457 442 503 438 548.8 437.7C594.7 437.3 640.3 440.7 686 441C731.7 441.3 777.3 438.7 823 438.8C868.7 439 914.3 442 937.2 443.5L960 445L960 541L937.2 541C914.3 541 868.7 541 823 541C777.3 541 731.7 541 686 541C640.3 541 594.7 541 548.8 541C503 541 457 541 411.2 541C365.3 541 319.7 541 274 541C228.3 541 182.7 541 137 541C91.3 541 45.7 541 22.8 541L0 541Z" fill="#c62368"></path></svg>